# xmcd
#
# Track frame offsets:
# 150
# 13085
# 35257
# 47222
# 65602
# 82937
# 100915
# 111942
# 123840
# 138585
# 155702
# 173240
# 190282
# 202180
# 213830
# 228407
# 252145
# 262252
# 273265
# 287267
# 301760
# 311437
# 323077
#
# Disc length: 4489 seconds
#
#
# Revision: 0
# Processed by: cddbd v1.5.1PL0 Copyright (c) Steve Scherf et al.
# Submitted via: FreeRIP 2.35 
#
DISCID=47118717
DTITLE=Horst Chmela - 23  Hits - Herzlichst Euer Horst Chmela
DYEAR=1900
DGENRE=Pop-Folk
TTITLE0=Du bist a Gift für mi
TTITLE1=Mama i Bitt' di
TTITLE2=Du blödes Herz
TTITLE3=Madel, mei Madel
TTITLE4=Das Schönste am Altwerden
TTITLE5=Du
TTITLE6=Mir san a Weltpartie
TTITLE7=Die Gassenkinder
TTITLE8=Zum Raunzen is ka Grund
TTITLE9=Der alte Wirt
TTITLE10=A Mannsbild und a Frauenzimmer
TTITLE11=Ana hat imma das Bummerl
TTITLE12=Mama bring a Bier, sonst kriagst die gelbe Kart'n
TTITLE13=I steh' halt auf die Volksmusik
TTITLE14=Du, die Nacht ist heut' so schön
TTITLE15=Schatz'l, i bin's
TTITLE16=I' war a Narr
TTITLE17=Was macht a Elefant im schönen Tirolerland
TTITLE18=Du bist alles was i' will
TTITLE19=Samma wieder guat
TTITLE20=A Stamperl für's Wamperl
TTITLE21='s Tabakdoserl
TTITLE22=A klana Schmetterling
EXTD=
EXTT0=
EXTT1=
EXTT2=
EXTT3=
EXTT4=
EXTT5=
EXTT6=
EXTT7=
EXTT8=
EXTT9=
EXTT10=
EXTT11=
EXTT12=
EXTT13=
EXTT14=
EXTT15=
EXTT16=
EXTT17=
EXTT18=
EXTT19=
EXTT20=
EXTT21=
EXTT22=
PLAYORDER=
